<?xml version="1.0" encoding="utf-8"?>
<!-- Generator: Adobe Illustrator 24.1.0, SVG Export Plug-In . SVG Version: 6.00 Build 0)  -->
<svg version="1.1" id="Layer_1" xmlns="http://www.w3.org/2000/svg" xmlns:xlink="http://www.w3.org/1999/xlink" x="0px" y="0px"
	 viewBox="0 0 350.14 350.14" style="enable-background:new 0 0 350.14 350.14;" xml:space="preserve">
<style type="text/css">
	.st0{fill:#EEEEEE;}
	.st1{fill:#FFFFFF;}
	.st2{fill:#333333;}
	.st3{opacity:0.48;fill:#F6F5F2;}
	.st4{fill:#F96302;}
	.st5{fill:none;stroke:#F96302;stroke-width:3;stroke-miterlimit:10;}
	.st6{opacity:0.48;fill:#EEEEEE;}
	.st7{fill:#55565A;}
	.st8{fill:#555555;}
</style>
<g>
	<circle class="st0" cx="136.92" cy="158.73" r="113.35"/>
	<circle class="st0" cx="261.92" cy="235.59" r="72.21"/>
	<circle class="st6" cx="80.76" cy="281.31" r="25.62"/>
	<circle class="st0" cx="187.91" cy="272.77" r="25.62"/>
	<circle class="st6" cx="33.4" cy="312.37" r="11.65"/>
	<circle class="st0" cx="306.69" cy="72.46" r="11.65"/>
	<circle class="st6" cx="319.12" cy="129.92" r="25.62"/>
	<circle class="st6" cx="241.48" cy="88.77" r="34.94"/>
	<circle class="st6" cx="261.14" cy="151.98" r="26"/>
	<circle class="st6" cx="50.58" cy="67.3" r="39.18"/>
	<circle class="st6" cx="303.24" cy="300.96" r="16.83"/>
	<circle class="st6" cx="108.65" cy="292.05" r="17.15"/>
</g>
<g>
	<g>
		<path class="st1" d="M243.12,311.52c-4.48,0-8.44-1.69-11.77-5.02s-5.02-7.29-5.02-11.77c0-4.83,1.64-8.93,4.89-12.17
			c0.31-0.31,0.63-0.61,0.96-0.89h-82.75c0.33,0.28,0.65,0.58,0.96,0.89c3.25,3.25,4.89,7.35,4.89,12.17
			c0,4.66-1.65,8.66-4.89,11.91c-3.24,3.24-7.34,4.89-12.17,4.89c-4.48,0-8.44-1.69-11.77-5.02c-3.33-3.33-5.02-7.29-5.02-11.77
			c0-4.83,1.65-8.93,4.89-12.17l1.41,1.41l-1.41-1.41c0.31-0.31,0.63-0.61,0.96-0.89h-0.08c-0.56,0-1.1-0.24-1.48-0.65l-5.65-6.19
			c-0.56-0.61-0.68-1.5-0.31-2.24l5.11-10.22l2.95-5.36l0.52-1.21l-20.24-94.37H77.14c-1.1,0-2-0.9-2-2v-14.79c0-1.1,0.9-2,2-2
			h45.19c0.98,0,1.82,0.71,1.97,1.68l1.32,8.19c0.77,2.45,1.24,3.94,1.39,4.92h146.5c1.1,0,2,0.9,2,2v74.25c0,1-0.75,1.85-1.74,1.98
			l-6.19,0.81c-0.09,0.01-0.17,0.02-0.26,0.02h-0.69L146.97,250.7l1.76,6.07c0.14,0.48,0.09,1-0.13,1.45l-2.05,4.1h111.63
			c1.1,0,2,0.9,2,2v15.33c0,1.1-0.9,2-2,2h-3.85c0.33,0.28,0.65,0.58,0.96,0.89c3.25,3.25,4.89,7.35,4.89,12.17
			c0,4.66-1.65,8.66-4.89,11.91C252.05,309.87,247.95,311.52,243.12,311.52z"/>
	</g>
</g>
<g>
	<g>
		<g>
			<path class="st8" d="M243.12,311.52c-4.48,0-8.44-1.69-11.77-5.02s-5.02-7.29-5.02-11.77c0-4.83,1.64-8.93,4.89-12.17
				c0.31-0.31,0.63-0.61,0.96-0.89h-82.75c0.33,0.28,0.65,0.58,0.96,0.89c3.25,3.25,4.89,7.35,4.89,12.17
				c0,4.66-1.65,8.66-4.89,11.91c-3.24,3.24-7.34,4.89-12.17,4.89c-4.48,0-8.44-1.69-11.77-5.02c-3.33-3.33-5.02-7.29-5.02-11.77
				c0-4.83,1.65-8.93,4.89-12.17l1.41,1.41l-1.41-1.41c0.31-0.31,0.63-0.61,0.96-0.89h-0.08c-0.56,0-1.1-0.24-1.48-0.65l-5.65-6.19
				c-0.56-0.61-0.68-1.5-0.31-2.24l5.11-10.22l2.95-5.36l0.52-1.21l-20.24-94.37H77.14c-1.1,0-2-0.9-2-2v-14.79c0-1.1,0.9-2,2-2
				h45.19c0.98,0,1.82,0.71,1.97,1.68l1.32,8.19c0.77,2.45,1.24,3.94,1.39,4.92h146.5c1.1,0,2,0.9,2,2v74.25
				c0,1-0.75,1.85-1.74,1.98l-6.19,0.81c-0.09,0.01-0.17,0.02-0.26,0.02h-0.69L146.97,250.7l1.76,6.07c0.14,0.48,0.09,1-0.13,1.45
				l-2.05,4.1h111.63c1.1,0,2,0.9,2,2v15.33c0,1.1-0.9,2-2,2h-3.85c0.33,0.28,0.65,0.58,0.96,0.89c3.25,3.25,4.89,7.35,4.89,12.17
				c0,4.66-1.65,8.66-4.89,11.91C252.05,309.87,247.95,311.52,243.12,311.52z M243.12,281.66c-3.61,0-6.58,1.22-9.08,3.72
				c-2.5,2.5-3.72,5.56-3.72,9.35c0,3.43,1.26,6.35,3.85,8.94s5.52,3.85,8.94,3.85c3.79,0,6.84-1.22,9.35-3.72s3.72-5.47,3.72-9.08
				c0-3.78-1.22-6.84-3.72-9.35C249.96,282.88,246.9,281.66,243.12,281.66z M138.21,281.66c-3.61,0-6.58,1.22-9.08,3.72
				c-2.5,2.5-3.72,5.56-3.72,9.35c0,3.43,1.26,6.35,3.85,8.94c2.59,2.59,5.52,3.85,8.94,3.85c3.79,0,6.84-1.22,9.35-3.72
				c2.5-2.5,3.72-5.47,3.72-9.08c0-3.78-1.22-6.84-3.72-9.35C145.05,282.88,141.99,281.66,138.21,281.66z M243.12,277.66h13.06
				v-11.33H143.32c-0.69,0-1.34-0.36-1.7-0.95c-0.36-0.59-0.4-1.33-0.09-1.95l3.15-6.29l-2.2-7.59c-0.16-0.56-0.07-1.17,0.25-1.66
				c0.32-0.49,0.85-0.81,1.43-0.88l122.13-14.53c0.08-0.01,0.16-0.01,0.24-0.01h0.68l4.32-0.56v-70.49H125.02c-1.1,0-2-0.9-2-2
				v-1.61c0-0.02,0-0.03,0-0.05c-0.1-0.41-0.4-1.48-1.25-4.19c-0.03-0.09-0.05-0.19-0.07-0.28l-1.07-6.66H79.14v10.79h30.55
				c0.94,0,1.76,0.66,1.96,1.58l20.71,96.57c0.09,0.4,0.05,0.83-0.12,1.21l-0.81,1.88c-0.03,0.06-0.05,0.12-0.09,0.18l-2.96,5.38
				l-4.46,8.92l4.13,4.52H243.12z"/>
		</g>
	</g>
</g>
<g>
	<circle class="st3" cx="114" cy="211.46" r="38.07"/>
	<g>
		<circle class="st4" cx="114.37" cy="211.71" r="32.37"/>
		<g>
			<g>
				<path class="st1" d="M121.11,201.2c0,3.45-0.55,6.01-1.66,7.68c-1.11,1.67-2.8,2.51-5.08,2.51c-2.21,0-3.88-0.86-5.02-2.59
					c-1.14-1.73-1.71-4.26-1.71-7.6c0-3.5,0.55-6.08,1.66-7.75c1.11-1.66,2.8-2.49,5.07-2.49c2.22,0,3.9,0.87,5.04,2.61
					C120.54,195.31,121.11,197.86,121.11,201.2z M110.86,201.2c0,2.71,0.28,4.64,0.83,5.8c0.56,1.16,1.45,1.74,2.67,1.74
					s2.12-0.59,2.68-1.76c0.57-1.18,0.85-3.1,0.85-5.77c0-2.66-0.28-4.59-0.85-5.78c-0.57-1.19-1.46-1.79-2.68-1.79
					s-2.11,0.58-2.67,1.75C111.14,196.56,110.86,198.5,110.86,201.2z"/>
			</g>
			<g>
				<path class="st1" d="M97.14,224.14l-0.24-0.77h-0.04c-0.27,0.34-0.54,0.57-0.81,0.69s-0.62,0.18-1.04,0.18
					c-0.55,0-0.97-0.15-1.28-0.44c-0.31-0.29-0.46-0.71-0.46-1.25c0-0.57,0.21-1,0.64-1.3s1.07-0.45,1.94-0.48l0.96-0.03v-0.3
					c0-0.36-0.08-0.62-0.25-0.8c-0.17-0.18-0.42-0.26-0.77-0.26c-0.28,0-0.56,0.04-0.82,0.13s-0.51,0.18-0.75,0.3l-0.38-0.84
					c0.3-0.16,0.63-0.28,0.99-0.36c0.36-0.08,0.7-0.12,1.01-0.12c0.71,0,1.24,0.15,1.6,0.46c0.36,0.31,0.54,0.79,0.54,1.45v3.74
					H97.14z M95.38,223.33c0.43,0,0.77-0.12,1.03-0.36c0.26-0.24,0.39-0.58,0.39-1.01v-0.48l-0.71,0.03
					c-0.56,0.02-0.96,0.11-1.21,0.28s-0.38,0.42-0.38,0.76c0,0.25,0.07,0.44,0.22,0.58C94.87,223.27,95.09,223.33,95.38,223.33z"/>
				<path class="st1" d="M102.45,218.48c0.24,0,0.43,0.02,0.59,0.05l-0.12,1.1c-0.17-0.04-0.34-0.06-0.52-0.06
					c-0.47,0-0.85,0.15-1.15,0.46c-0.29,0.31-0.44,0.71-0.44,1.2v2.9h-1.18v-5.56h0.92l0.16,0.98h0.06
					c0.18-0.33,0.42-0.59,0.72-0.79S102.11,218.48,102.45,218.48z"/>
				<path class="st1" d="M106.14,223.28c0.29,0,0.58-0.04,0.86-0.13v0.89c-0.13,0.06-0.3,0.1-0.5,0.14
					c-0.21,0.04-0.42,0.06-0.64,0.06c-1.12,0-1.68-0.59-1.68-1.77v-2.99h-0.76v-0.52l0.81-0.43l0.4-1.17h0.73v1.24h1.58v0.89h-1.58
					v2.97c0,0.29,0.07,0.5,0.21,0.63C105.72,223.22,105.91,223.28,106.14,223.28z"/>
				<path class="st1" d="M108.05,217.9v-0.13c0.19-0.23,0.39-0.5,0.59-0.78s0.36-0.53,0.48-0.74h1.37v0.11
					c-0.17,0.21-0.43,0.47-0.78,0.79s-0.64,0.57-0.88,0.75H108.05z M109.29,224.14h-1.18v-5.56h1.18V224.14z"/>
				<path class="st1" d="M113.22,224.24c-0.84,0-1.48-0.25-1.92-0.74c-0.44-0.49-0.66-1.19-0.66-2.11c0-0.93,0.23-1.65,0.69-2.16
					s1.12-0.75,1.98-0.75c0.59,0,1.11,0.11,1.58,0.33l-0.36,0.95c-0.5-0.19-0.91-0.29-1.24-0.29c-0.96,0-1.44,0.64-1.44,1.91
					c0,0.62,0.12,1.09,0.36,1.4c0.24,0.31,0.59,0.47,1.05,0.47c0.53,0,1.02-0.13,1.49-0.39v1.03c-0.21,0.12-0.44,0.21-0.68,0.27
					C113.86,224.21,113.56,224.24,113.22,224.24z"/>
				<path class="st1" d="M120,224.14l-0.17-0.73h-0.06c-0.16,0.26-0.4,0.46-0.7,0.61c-0.3,0.15-0.65,0.22-1.04,0.22
					c-0.67,0-1.18-0.17-1.51-0.5c-0.33-0.33-0.5-0.84-0.5-1.52v-3.63h1.19v3.43c0,0.42,0.09,0.74,0.26,0.96s0.45,0.32,0.82,0.32
					c0.5,0,0.86-0.15,1.09-0.44c0.23-0.3,0.35-0.79,0.35-1.49v-2.77h1.19v5.56H120z"/>
				<path class="st1" d="M123.79,224.14h-1.18v-7.82h1.18V224.14z"/>
				<path class="st1" d="M130.4,221.35c0,0.91-0.23,1.62-0.7,2.12c-0.47,0.51-1.11,0.76-1.94,0.76c-0.52,0-0.98-0.12-1.38-0.35
					c-0.4-0.23-0.71-0.57-0.92-1.01c-0.21-0.44-0.32-0.95-0.32-1.53c0-0.9,0.23-1.6,0.69-2.11c0.46-0.51,1.11-0.76,1.95-0.76
					c0.8,0,1.44,0.26,1.91,0.78C130.17,219.77,130.4,220.47,130.4,221.35z M126.36,221.35c0,1.28,0.47,1.92,1.42,1.92
					c0.94,0,1.41-0.64,1.41-1.92c0-1.27-0.47-1.9-1.42-1.9c-0.5,0-0.85,0.16-1.08,0.49C126.47,220.27,126.36,220.74,126.36,221.35z"
					/>
				<path class="st1" d="M135.49,222.55c0,0.54-0.2,0.96-0.59,1.25s-0.96,0.43-1.7,0.43c-0.74,0-1.33-0.11-1.78-0.34v-1.02
					c0.65,0.3,1.26,0.45,1.82,0.45c0.73,0,1.09-0.22,1.09-0.66c0-0.14-0.04-0.26-0.12-0.35c-0.08-0.09-0.21-0.19-0.4-0.29
					c-0.18-0.1-0.44-0.21-0.77-0.34c-0.64-0.25-1.07-0.5-1.3-0.74s-0.34-0.57-0.34-0.96c0-0.48,0.19-0.85,0.58-1.11
					c0.38-0.26,0.91-0.39,1.56-0.39c0.65,0,1.27,0.13,1.85,0.4l-0.38,0.89c-0.6-0.25-1.1-0.37-1.51-0.37
					c-0.62,0-0.93,0.18-0.93,0.53c0,0.17,0.08,0.32,0.24,0.44c0.16,0.12,0.52,0.29,1.06,0.5c0.46,0.18,0.79,0.34,1,0.49
					s0.36,0.32,0.46,0.51C135.44,222.06,135.49,222.29,135.49,222.55z"/>
			</g>
		</g>
		<g>
			<path class="st4" d="M114.37,251.46c-21.92,0-39.75-17.83-39.75-39.75c0-21.92,17.83-39.75,39.75-39.75
				c21.92,0,39.75,17.83,39.75,39.75C154.12,233.63,136.29,251.46,114.37,251.46z M114.37,175.38c-20.04,0-36.34,16.3-36.34,36.34
				c0,20.04,16.3,36.34,36.34,36.34c20.04,0,36.34-16.3,36.34-36.34C150.71,191.68,134.41,175.38,114.37,175.38z"/>
		</g>
	</g>
</g>
</svg>
